<svg width="132" height="95" viewBox="0 0 132 95" fill="none" xmlns="http://www.w3.org/2000/svg">
<g id="deal_offset16 1">
<path id="Vector" d="M72.0342 92.7119C70.101 92.7119 68.2967 91.9845 66.9533 90.6641L63.3391 87.1114L59.7351 90.6539C58.3363 91.9811 56.5288 92.7119 54.644 92.7119C52.739 92.7119 50.887 91.9654 49.563 90.6641C48.2654 89.3928 47.5261 87.704 47.479 85.9066L47.4345 84.2096L45.708 84.1657C43.8836 84.1194 42.1647 83.3919 40.868 82.1173C39.5704 80.8461 38.8312 79.1573 38.784 77.3599L38.7395 75.6628L37.013 75.6189C35.1886 75.5727 33.4697 74.8451 32.173 73.5706C30.8556 72.2799 30.1357 70.6358 30.0891 68.8142L30.0456 67.1172L28.3192 67.0724C26.4665 67.0241 24.7924 66.3159 23.478 65.024C22.1345 63.7034 21.3946 61.9298 21.3946 60.0296C21.3946 59.237 21.5279 58.4813 21.802 57.719L22.378 56.118L15.223 53.2174L12.9936 58.6578L12.9845 58.682C12.8627 59.0064 12.4864 59.2427 12.0868 59.2475C12.0122 59.2429 11.8294 59.2169 11.6656 59.1881L3.54549 56.6549C2.98968 56.4678 2.682 55.912 2.83681 55.3786C2.99889 54.9246 3.36886 54.6324 3.78452 54.6324C3.88988 54.6324 3.99922 54.6508 4.10948 54.6869L11.4816 56.9813L28.9076 14.3364L8.23153 5.53677C7.9185 5.40684 7.77006 5.17524 7.70061 5.00386C7.59661 4.74712 7.60127 4.46659 7.71391 4.21398L7.72346 4.19209C7.91191 3.75358 8.32711 3.59728 8.65275 3.59728C8.79665 3.59728 8.93668 3.62621 9.0691 3.68319L30.6718 12.8466C31.1865 13.0684 31.4451 13.6636 31.2387 14.1697L29.3648 18.7154L35.0044 20.0352C36.811 20.458 38.6616 20.6723 40.5047 20.6723C42.5989 20.6723 44.6852 20.3965 46.7056 19.8528L51.8296 18.4678C53.3254 18.1567 54.8453 17.9989 56.3481 17.9989C60.0862 17.9989 63.7272 18.9446 67.1702 20.8097L68.0086 21.2639L69.9992 20.2811C72.6465 18.9627 75.5792 18.2672 78.4857 18.2672C79.9717 18.2672 81.4543 18.4464 82.8925 18.7999L88.6866 20.1975C89.9725 20.5234 91.301 20.6887 92.6355 20.6887C94.8424 20.6887 96.9982 20.2495 99.0432 19.3834L102.89 17.8292L100.819 12.5465C100.617 12.0505 100.862 11.5046 101.389 11.2742L122.435 2.38543L122.458 2.37526C122.587 2.31683 122.718 2.28711 122.85 2.28711C123.235 2.28711 123.606 2.53804 123.776 2.91231C123.999 3.43796 123.766 4.02394 123.243 4.25119L103.107 12.7505L121.375 58.3389L122.379 58.0101L122.176 58.2413L128.557 56.0676C128.661 56.0322 128.768 56.0141 128.875 56.0141C129.298 56.0141 129.679 56.2887 129.823 56.6975C129.939 57.0258 129.843 57.2997 129.775 57.4338C129.655 57.6725 129.444 57.8532 129.182 57.9424L120.829 60.738L120.809 60.7496C120.768 60.7504 120.72 60.7504 120.683 60.7504C120.254 60.7504 119.871 60.4946 119.706 60.098L117.834 55.3026L108.529 60.2648L109.103 61.73C109.431 62.5671 109.605 63.4658 109.605 64.329C109.605 66.2291 108.865 68.0027 107.521 69.3232C106.208 70.6182 104.536 71.3259 102.683 71.3717L100.955 71.4145L100.91 73.1125C100.863 74.9059 100.123 76.5954 98.8264 77.87C97.533 79.1454 95.8149 79.8722 93.9863 79.9185L92.2598 79.9622L92.2151 81.6593C92.1682 83.4478 91.4318 85.1334 90.1414 86.4067C88.7426 87.734 86.9352 88.4646 85.0503 88.4646C83.801 88.4646 82.5471 88.0992 81.3232 87.3781L79.4911 86.299L78.6993 88.2489C78.3058 89.2181 77.8055 89.9828 77.1253 90.6538C75.7264 91.9811 73.919 92.7117 72.0342 92.7117V92.7119ZM51.0692 89.1571L51.1244 89.2119C52.0598 90.1313 53.3781 90.6586 54.7414 90.6586C56.1046 90.6586 57.423 90.1313 58.3583 89.2119L62.6793 84.9647C63.6307 84.0296 64.1763 82.7347 64.1763 81.4122C64.1763 80.0896 63.6307 78.795 62.6794 77.8597C61.728 76.9246 60.4107 76.3882 59.0652 76.3882C57.7197 76.3882 56.4023 76.9246 55.4511 77.8597L51.1301 82.107C50.1787 83.0421 49.6331 84.3369 49.6331 85.6595C49.6331 86.9578 50.1535 88.2254 51.0637 89.1505L51.0694 89.1571H51.0692ZM46.2702 53.1666C48.1575 53.1666 49.8813 53.8393 51.124 55.0608C52.4675 56.3813 53.2074 58.0956 53.2074 59.8875V61.6327L54.9823 61.6745C56.8787 61.7192 58.5964 62.4057 59.8191 63.6075C61.1626 64.9281 61.9025 66.7018 61.9025 68.6019C61.9025 69.8298 61.5306 71.0623 60.7972 72.2653L59.6993 74.0663L61.683 74.8445C62.6739 75.2331 63.4547 75.728 64.1401 76.4016C65.4835 77.7222 66.2235 79.4958 66.2235 81.3958C66.2235 82.4642 65.9703 83.4833 65.4498 84.5112L64.8666 85.6625L68.4611 89.1956C69.3964 90.115 70.7147 90.6422 72.0779 90.6422C73.4412 90.6422 74.7596 90.1149 75.6948 89.1956C76.6461 88.2605 77.1918 86.9656 77.1918 85.6431C77.1918 84.3205 76.6461 83.0258 75.6948 82.0906L71.3738 77.8433C71.1107 77.5845 71.0553 77.3101 71.0553 77.1251C71.0553 76.9402 71.1106 76.6657 71.3738 76.4069C71.6371 76.1482 71.9163 76.0938 72.1044 76.0938C72.2925 76.0938 72.5718 76.1481 72.8352 76.4069L81.5303 84.9536C82.4656 85.873 83.784 86.4002 85.1471 86.4002C86.5102 86.4002 87.8287 85.873 88.764 84.9538C89.7154 84.0185 90.2611 82.7237 90.2611 81.4011C90.2611 80.0785 89.7154 78.7837 88.764 77.8485L80.0689 69.3018C79.8058 69.043 79.7504 68.7685 79.7504 68.5836C79.7504 68.3988 79.8057 68.1242 80.0689 67.8654C80.3322 67.6067 80.6114 67.5523 80.7995 67.5523C80.9877 67.5523 81.2669 67.6066 81.5303 67.8654L90.2254 76.4121C91.1607 77.3315 92.4791 77.8587 93.8422 77.8587C95.2054 77.8587 96.5238 77.3315 97.4591 76.4123C98.4105 75.477 98.9562 74.1822 98.9562 72.8596C98.9562 71.537 98.4105 70.2423 97.4591 69.3072L88.764 60.7604C88.5009 60.5017 88.4456 60.227 88.4456 60.0421C88.4456 59.8572 88.5008 59.5827 88.764 59.3239C89.0273 59.0652 89.3065 59.0108 89.4947 59.0108C89.6828 59.0108 89.962 59.0651 90.2254 59.3239L98.9205 67.8706C99.8558 68.79 101.174 69.3172 102.537 69.3172C103.864 69.3172 105.148 68.8177 106.078 67.9435L106.258 67.7999L106.325 67.7342C107.305 66.7716 107.822 65.5432 107.822 64.1817C107.822 62.8201 107.305 61.5918 106.325 60.6292L87.4975 42.1228C84.9253 39.6509 81.8841 38.3443 78.7026 38.3443C78.4173 38.3443 78.1282 38.3553 77.8433 38.377C74.7732 38.6067 71.6688 39.3884 68.6184 40.7001L63.949 42.7719C62.8039 43.26 61.6247 43.5075 60.4441 43.5075C59.6826 43.5075 58.9297 43.4019 58.2064 43.1936L57.4412 42.9766C55.7405 42.4171 54.4536 41.6944 53.6159 40.8285L53.5819 40.7943C52.1084 39.3503 51.2474 37.4709 51.1577 35.5021L51.1562 35.4678L51.1533 35.4336C50.875 32.1501 52.6723 29.0415 55.7323 27.5137L66.5098 22.081L62.0506 20.8475C60.1019 20.3085 58.1486 20.0351 56.2452 20.0351C54.9305 20.0351 53.6286 20.1667 52.3759 20.4263L52.3238 20.4371L47.2697 21.7915C45.0325 22.3836 42.7397 22.6846 40.4605 22.6846C38.477 22.6846 36.503 22.4554 34.5935 22.0034L28.6883 20.646L16.1194 51.3721L24.0883 54.5585L27.9457 50.767C29.319 49.439 31.1338 48.7077 33.056 48.7077C34.9669 48.7077 36.7609 49.4368 38.1079 50.7607C38.8175 51.4583 39.336 52.27 39.7394 53.315L40.5108 55.3132L42.3753 54.2136C43.5373 53.5283 44.8841 53.1661 46.2701 53.1661L46.2702 53.1666ZM54.7441 63.5421C53.3986 63.5421 52.0812 64.0784 51.1299 65.0136L42.4348 73.5603C41.4554 74.5229 40.9378 75.7513 40.9378 77.1129V77.1569C40.9378 78.4245 41.472 79.6196 42.4825 80.613C43.4179 81.5324 44.7362 82.0597 46.0995 82.0597C47.4627 82.0597 48.7811 81.5324 49.7164 80.613L58.3582 72.1187C59.3096 71.1838 59.8551 69.8889 59.8551 68.5662C59.8551 67.2435 59.3096 65.9489 58.3582 65.0137C57.4067 64.0786 56.0894 63.5422 54.7439 63.5422L54.7441 63.5421ZM46.049 54.9953C44.7035 54.9953 43.3861 55.5317 42.4348 56.4668L33.7397 65.0136C32.7567 65.9796 32.2372 67.2066 32.2372 68.5614C32.2372 69.8886 32.7829 71.1834 33.7342 72.1185C34.6695 73.0379 35.9878 73.5652 37.3512 73.5652C38.7145 73.5652 40.0328 73.0379 40.9681 72.1185L49.6632 63.5718C50.6146 62.6369 51.1601 61.342 51.1601 60.0194C51.1601 58.6967 50.6146 57.402 49.6632 56.4668C48.7118 55.5317 47.3944 54.9953 46.0489 54.9953H46.049ZM25.0309 63.5112C25.9814 64.4783 27.2629 65.0107 28.6416 65.0107C30.0121 65.0107 31.3037 64.4829 32.2786 63.5248L36.588 59.2889C37.5561 58.3684 38.0968 57.1282 38.1109 55.7942C38.1253 54.4334 37.5933 53.1507 36.6124 52.1799C35.6619 51.2134 34.3808 50.6814 33.0026 50.6814C31.6321 50.6814 30.3405 51.2092 29.3656 52.1673L25.0368 56.4745C24.0747 57.4201 23.5571 58.6361 23.5478 59.9829V60.008C23.5573 61.311 24.0978 62.5867 25.0309 63.5112ZM78.5626 36.4484C82.2521 36.4484 85.8701 38.0074 88.7501 40.8381L106.614 58.397H107.846L117.101 53.3957L103.617 19.7947L99.8415 21.341L99.823 21.349C97.5731 22.329 95.061 22.8469 92.5582 22.8469C91.0782 22.8469 89.6206 22.668 88.226 22.3153L82.4094 20.9121C81.1247 20.6017 79.8008 20.4443 78.4747 20.4443C75.8641 20.4443 73.2521 21.0612 70.921 22.2284L56.5298 29.44C54.2325 30.6093 52.9004 32.9228 53.0513 35.4798C53.1283 37.0414 53.7629 38.4504 54.8868 39.5551C55.5639 40.2207 56.5302 40.7611 57.7585 41.1611L57.8232 41.1821L58.5628 41.3639C59.144 41.5127 59.7363 41.5881 60.3239 41.5881C61.2602 41.5881 62.1431 41.4012 62.9485 41.0326L67.6373 38.9755C70.7889 37.6456 74.0982 36.811 77.4743 36.4943C77.8342 36.4639 78.2004 36.4484 78.5626 36.4484Z" fill="black"/>
</g>
</svg>
