<svg width="95" height="95" viewBox="0 0 95 95" fill="none" xmlns="http://www.w3.org/2000/svg">
<g id="noun-lab-tested-5084411">
<path id="Vector" d="M88.7926 53.0284C88.3624 52.5982 87.665 52.5982 87.2348 53.0284L69.7116 70.55L63.5526 64.3911C63.1224 63.9608 62.425 63.9608 61.9948 64.3911C61.5646 64.8213 61.5646 65.5187 61.9948 65.9489L68.9325 72.8865C69.1476 73.1016 69.4288 73.2094 69.7112 73.2094C69.9937 73.2094 70.2749 73.1016 70.49 72.8865L80.4681 62.9092C82.0069 66.4358 81.7856 70.6875 79.3833 74.2354C77.7769 76.6081 75.2696 78.3027 72.4741 78.9306C64.0877 80.8143 56.7236 73.588 58.36 65.2293C59.2109 60.8827 62.5915 57.3145 66.8944 56.2633C70.5874 55.3615 74.2975 56.2256 77.0989 58.4842C77.5279 58.8299 78.1399 58.8195 78.5199 58.4208L78.582 58.3557C79.0065 57.9104 78.9912 57.1816 78.5135 56.7939C75.7608 54.5614 72.2631 53.48 68.6505 53.7695L60.496 35.3173V13.344H61.4887C62.097 13.344 62.5902 12.8508 62.5902 12.2425V6.37887C62.5902 5.77056 62.0969 5.27734 61.4887 5.27734H33.8464C33.2381 5.27734 32.7449 5.7706 32.7449 6.37887V12.2423C32.7449 12.8506 33.2381 13.3438 33.8464 13.3438H34.839V29.565C34.839 30.1734 35.3323 30.6666 35.9406 30.6666H35.9409C36.5492 30.6666 37.0424 30.1733 37.0424 29.565L37.0421 13.3446H51.374C51.9823 13.3446 52.4755 12.8513 52.4755 12.2431C52.4755 11.6348 51.9822 11.1415 51.374 11.1415H34.9474V7.48102H60.387V11.1413L59.3944 11.1416H55.7797C55.1714 11.1416 54.6781 11.6349 54.6781 12.2431V12.2434C54.6781 12.8517 55.1714 13.345 55.7797 13.345H58.2928V35.5477C58.3246 35.6989 58.3555 35.8452 58.3873 35.996L66.4039 54.1349C61.1244 55.4209 57.011 59.8443 56.1219 65.2198C54.5498 74.7263 62.7236 82.8628 72.2366 81.2264C74.1127 80.9036 75.8828 80.1707 77.4516 79.1378L80.0177 84.9473C80.2744 85.5268 80.2227 86.1621 79.8772 86.6929C79.5317 87.2214 78.9721 87.5255 78.3396 87.5255H16.9936C16.3611 87.5255 15.8017 87.2214 15.456 86.6923C15.1102 86.1617 15.0588 85.5261 15.314 84.9466L26.8314 58.8852H55.3839C55.9922 58.8852 56.4854 58.3919 56.4854 57.7836C56.4854 57.1754 55.9922 56.6821 55.3839 56.6821H27.805L36.9481 35.9927C36.9796 35.844 37.0099 35.7002 37.0411 35.5515V33.9723C37.0411 33.364 36.5479 32.8708 35.9396 32.8708H35.9399C35.3316 32.8708 34.8384 33.364 34.8384 33.9723V35.3192L13.2991 84.0574C12.5763 85.6939 12.9949 87.6381 14.4719 88.8535C15.2026 89.4548 16.1534 89.7287 17.0998 89.7287H78.3401C80.1276 89.7287 81.7365 88.5613 82.2527 86.7205C82.5079 85.8102 82.3751 84.8307 81.993 83.966L79.2446 77.747C80.3361 76.7367 81.2711 75.5534 81.9795 74.223C84.2279 69.9985 84.1189 65.1982 82.1092 61.2698L88.7918 54.5876C89.2223 54.1574 89.2223 53.4597 88.7921 53.0298L88.7926 53.0284Z" fill="black"/>
</g>
</svg>
