<svg width="99" height="95" viewBox="0 0 99 95" fill="none" xmlns="http://www.w3.org/2000/svg">
<g id="noun-parcel-7188008">
<path id="Vector" d="M95.5521 20.1938V20.1514C95.5521 20.109 95.5098 20.0667 95.5098 20.0243C95.4845 19.8718 95.4423 19.7447 95.3578 19.6345C95.3156 19.5667 95.2734 19.5244 95.2058 19.482C95.1636 19.4396 95.1213 19.3549 95.0538 19.3125C95.0115 19.2871 94.944 19.2871 94.9017 19.2701C94.8595 19.2701 94.8342 19.2024 94.7919 19.2024L44.7419 3.75507C44.5054 3.68728 44.2436 3.68729 44.0325 3.78049L33.7877 7.8563C33.5934 7.8563 33.4161 7.94104 33.2725 8.05119L22.0309 12.5167C21.7522 12.5167 21.4904 12.6269 21.2962 12.8218L5.16458 19.2194C5.16458 19.2194 5.12235 19.2618 5.08013 19.2872C5.0379 19.3126 4.97033 19.3126 4.9281 19.355C4.86053 19.3973 4.8183 19.4821 4.75918 19.5499C4.71695 19.5922 4.67472 19.6346 4.64939 19.677C4.53959 19.8464 4.48047 20.0244 4.48047 20.2193V73.9927C4.48047 74.4503 4.78452 74.8824 5.21525 75.0095L57.3013 92.643C57.4111 92.6854 57.5378 92.7108 57.6476 92.7108C57.7996 92.7108 57.9685 92.6685 58.1206 92.6007L94.9869 74.9672C95.3585 74.7977 95.595 74.3995 95.595 73.9927V20.1777L95.5521 20.1938ZM8.67712 20.1514L22.1651 14.7961L69.6044 30.9383L57.5436 36.7088L27.8573 26.6421L8.6773 20.1344L8.67712 20.1514ZM33.9544 10.1102L80.8297 25.5745L72.4007 29.6078L25.2642 13.5757L33.9549 10.127L33.9544 10.1102ZM82.6459 27.0913V37.1748L73.5834 41.3437L73.5412 31.4551L82.6206 27.0911L82.6459 27.0913ZM44.4624 5.91599L91.5143 20.4482L83.6426 24.2021L37.0899 8.84788L44.4624 5.91599ZM6.59966 21.7277L22.8157 27.2186L56.5236 38.6325V90.1265L6.59966 73.2048V21.7109V21.7277ZM58.6857 89.9302V38.5392L60.8225 37.5224L71.3968 32.4721L71.439 43.0131C71.439 43.3859 71.6333 43.7249 71.9373 43.9282C72.1062 44.0384 72.3089 44.0977 72.5201 44.0977C72.6721 44.0977 72.8241 44.0723 72.9762 43.9876L84.1753 38.8271C84.5638 38.6577 84.8003 38.2594 84.8003 37.8527V26.049L93.4068 21.9309V73.3218L58.7025 89.9385L58.6857 89.9302Z" fill="black"/>
</g>
</svg>
